<svg xmlns="http://www.w3.org/2000/svg"  viewBox="0 0 32 32" width="32px" height="32px"><linearGradient id="GgiYohkLtgtbtYc3cM6xla" x1="6.783" x2="23.589" y1="2.384" y2="19.189" gradientUnits="userSpaceOnUse"><stop offset="0" stop-color="#2680ff" stop-opacity=".95"/><stop offset="1" stop-color="#2680ff" stop-opacity=".5"/></linearGradient><path fill="url(#GgiYohkLtgtbtYc3cM6xla)" d="M29,9v6.03C28.89,15.01,28.76,15,28.64,15H3.36C3.24,15,3.11,15.01,3,15.03V7 c0-1.11,0.89-2,2-2h4.87c0.7,0,1.35,0.37,1.71,0.97L12.2,7H27C28.1,7,29,7.89,29,9z"/><linearGradient id="GgiYohkLtgtbtYc3cM6xlb" x1="6.6" x2="25.4" y1="10.934" y2="29.734" gradientUnits="userSpaceOnUse"><stop offset="0" stop-color="#00e9ff" stop-opacity=".95"/><stop offset="1" stop-color="#00e9ff" stop-opacity=".5"/></linearGradient><path fill="url(#GgiYohkLtgtbtYc3cM6xlb)" d="M30.61,17.33l-1.33,8 c-0.16,0.96-1,1.67-1.97,1.67H4.69c-0.97,0-1.81-0.71-1.97-1.67l-1.33-8c-0.19-1.1,0.56-2.1,1.61-2.3C3.11,15.01,3.24,15,3.36,15 h25.28c0.12,0,0.25,0.01,0.36,0.03C30.05,15.23,30.8,16.23,30.61,17.33z"/><linearGradient id="GgiYohkLtgtbtYc3cM6xlc" x1="4.009" x2="26.991" y1="5.162" y2="28.143" gradientUnits="userSpaceOnUse"><stop offset=".002" stop-color="#fff" stop-opacity=".6"/><stop offset=".493" stop-color="#fff" stop-opacity="0"/><stop offset=".996" stop-color="#fff" stop-opacity=".3"/></linearGradient><path fill="url(#GgiYohkLtgtbtYc3cM6xlc)" d="M9.868,5.5 c0.523,0,1.016,0.279,1.286,0.728l0.617,1.029L11.917,7.5H12.2H27c0.827,0,1.5,0.673,1.5,1.5v6.04v0.417l0.41,0.075 c0.8,0.146,1.342,0.915,1.209,1.714l-1.333,8c-0.121,0.726-0.743,1.253-1.48,1.253H27H5H4.694c-0.736,0-1.359-0.527-1.48-1.253 l-1.333-8c-0.133-0.799,0.409-1.568,1.209-1.714l0.41-0.075V15.04V7c0-0.827,0.673-1.5,1.5-1.5H9.868 M9.868,5H5 C3.895,5,3,5.895,3,7v8.04c-1.05,0.192-1.795,1.192-1.612,2.288l1.333,8C2.882,26.293,3.717,27,4.694,27H5h22h0.306 c0.978,0,1.812-0.707,1.973-1.671l1.333-8c0.183-1.096-0.562-2.097-1.612-2.288V9c0-1.105-0.895-2-2-2H12.2l-0.617-1.029 C11.221,5.369,10.57,5,9.868,5L9.868,5z"/></svg>