<svg xmlns="http://www.w3.org/2000/svg"  viewBox="0 0 32 32" width="32px" height="32px" baseProfile="basic"><linearGradient id="nih7TsmGX8F144lxsEjL0a" x1="7.515" x2="24.485" y1="7.515" y2="24.485" gradientUnits="userSpaceOnUse"><stop offset="0" stop-color="#00cf30" stop-opacity=".95"/><stop offset="1" stop-color="#00cf30" stop-opacity=".5"/></linearGradient><path fill="url(#nih7TsmGX8F144lxsEjL0a)" d="M16,4C9.373,4,4,9.373,4,16c0,6.627,5.373,12,12,12s12-5.373,12-12C28,9.373,22.627,4,16,4z"/><linearGradient id="nih7TsmGX8F144lxsEjL0b" x1="7.515" x2="24.485" y1="7.515" y2="24.485" gradientUnits="userSpaceOnUse"><stop offset="0" stop-color="#fff" stop-opacity=".6"/><stop offset=".493" stop-color="#fff" stop-opacity="0"/><stop offset=".997" stop-color="#fff" stop-opacity=".3"/></linearGradient><path fill="url(#nih7TsmGX8F144lxsEjL0b)" d="M16,4.5c6.341,0,11.5,5.159,11.5,11.5 S22.341,27.5,16,27.5S4.5,22.341,4.5,16S9.659,4.5,16,4.5 M16,4C9.373,4,4,9.373,4,16c0,6.627,5.373,12,12,12s12-5.373,12-12 C28,9.373,22.627,4,16,4L16,4z"/><linearGradient id="nih7TsmGX8F144lxsEjL0c" x1="10.42" x2="21.432" y1="16.253" y2="16.253" gradientUnits="userSpaceOnUse"><stop offset="0" stop-color="#fff" stop-opacity=".8"/><stop offset=".519" stop-color="#fff" stop-opacity=".5"/><stop offset="1" stop-color="#fff" stop-opacity=".6"/></linearGradient><path fill="url(#nih7TsmGX8F144lxsEjL0c)" d="M14.685,21.721	c-0.461,0-0.832-0.178-1.189-0.654l-2.764-3.463c-0.208-0.253-0.312-0.55-0.312-0.847c0-0.609,0.446-1.1,1.07-1.1	c0.372,0,0.669,0.119,0.996,0.565l2.14,2.853l4.741-7.668c0.238-0.416,0.58-0.624,0.936-0.624c0.594,0,1.129,0.386,1.129,1.025	c0,0.297-0.163,0.609-0.342,0.877l-5.29,8.381C15.517,21.513,15.131,21.721,14.685,21.721z"/></svg>