<svg xmlns="http://www.w3.org/2000/svg"  viewBox="0 0 32 32" width="32px" height="32px" baseProfile="basic"><linearGradient id="b4M1FrtRZoa0FVyuJaFdna" x1="6.808" x2="25.192" y1="6.808" y2="25.192" gradientUnits="userSpaceOnUse"><stop offset="0" stop-color="#7f78a1" stop-opacity=".95"/><stop offset="1" stop-color="#7f78a1" stop-opacity=".5"/></linearGradient><path fill="url(#b4M1FrtRZoa0FVyuJaFdna)" d="M16,3C8.82,3,3,8.82,3,16c0,7.18,5.82,13,13,13s13-5.82,13-13C29,8.82,23.18,3,16,3z"/><linearGradient id="b4M1FrtRZoa0FVyuJaFdnb" x1="6.808" x2="25.192" y1="6.808" y2="25.192" gradientUnits="userSpaceOnUse"><stop offset=".002" stop-color="#fff" stop-opacity=".6"/><stop offset=".493" stop-color="#fff" stop-opacity="0"/><stop offset=".996" stop-color="#fff" stop-opacity=".3"/></linearGradient><path fill="url(#b4M1FrtRZoa0FVyuJaFdnb)" d="M16,3.5c6.893,0,12.5,5.607,12.5,12.5 S22.893,28.5,16,28.5S3.5,22.893,3.5,16S9.107,3.5,16,3.5 M16,3C8.82,3,3,8.82,3,16c0,7.18,5.82,13,13,13c7.18,0,13-5.82,13-13 C29,8.82,23.18,3,16,3L16,3z"/><linearGradient id="b4M1FrtRZoa0FVyuJaFdnc" x1="11.291" x2="17.207" y1="10.291" y2="16.207" gradientUnits="userSpaceOnUse"><stop offset="0" stop-color="#fff" stop-opacity=".8"/><stop offset=".519" stop-color="#fff" stop-opacity=".5"/><stop offset="1" stop-color="#fff" stop-opacity=".6"/></linearGradient><path fill="url(#b4M1FrtRZoa0FVyuJaFdnc)" d="M17,16c0,0.552-0.448,1-1,1H8.995	C8.445,17,8,16.555,8,16.005v-0.011C8,15.445,8.445,15,8.995,15H15V6.995C15,6.445,15.445,6,15.995,6h0.011	C16.555,6,17,6.445,17,6.995V16z"/></svg>