<svg xmlns="http://www.w3.org/2000/svg"  viewBox="0 0 32 32" width="32px" height="32px" baseProfile="basic"><linearGradient id="Ja2kk16C5pt7iD_ahffVla" x1="6.808" x2="25.192" y1="6.808" y2="25.192" gradientUnits="userSpaceOnUse"><stop offset="0" stop-color="#2680ff" stop-opacity=".95"/><stop offset="1" stop-color="#2680ff" stop-opacity=".5"/></linearGradient><path fill="url(#Ja2kk16C5pt7iD_ahffVla)" d="M16,3C8.82,3,3,8.82,3,16c0,7.18,5.82,13,13,13s13-5.82,13-13C29,8.82,23.18,3,16,3z"/><linearGradient id="Ja2kk16C5pt7iD_ahffVlb" x1="6.808" x2="25.192" y1="6.808" y2="25.192" gradientUnits="userSpaceOnUse"><stop offset="0" stop-color="#fff" stop-opacity=".6"/><stop offset=".493" stop-color="#fff" stop-opacity="0"/><stop offset=".997" stop-color="#fff" stop-opacity=".3"/></linearGradient><path fill="url(#Ja2kk16C5pt7iD_ahffVlb)" d="M16,3.5c6.893,0,12.5,5.607,12.5,12.5S22.893,28.5,16,28.5C9.107,28.5,3.5,22.893,3.5,16	S9.107,3.5,16,3.5 M16,3C8.82,3,3,8.82,3,16c0,7.18,5.82,13,13,13c7.18,0,13-5.82,13-13C29,8.82,23.18,3,16,3L16,3z"/><linearGradient id="Ja2kk16C5pt7iD_ahffVlc" x1="14.586" x2="17.414" y1="8.586" y2="11.414" gradientUnits="userSpaceOnUse"><stop offset="0" stop-color="#fff" stop-opacity=".8"/><stop offset=".519" stop-color="#fff" stop-opacity=".5"/><stop offset="1" stop-color="#fff" stop-opacity=".6"/></linearGradient><circle cx="16" cy="10" r="2" fill="url(#Ja2kk16C5pt7iD_ahffVlc)"/><linearGradient id="Ja2kk16C5pt7iD_ahffVld" x1="11.793" x2="19.207" y1="15.793" y2="23.207" gradientUnits="userSpaceOnUse"><stop offset="0" stop-color="#fff" stop-opacity=".8"/><stop offset=".519" stop-color="#fff" stop-opacity=".5"/><stop offset="1" stop-color="#fff" stop-opacity=".6"/></linearGradient><path fill="url(#Ja2kk16C5pt7iD_ahffVld)" d="M18,22h-1v-7c0-0.553-0.448-1-1-1h-2c-0.552,0-1,0.447-1,1s0.448,1,1,1h1v6h-1	c-0.552,0-1,0.447-1,1s0.448,1,1,1h4c0.552,0,1-0.447,1-1S18.552,22,18,22z"/></svg>