<svg xmlns="http://www.w3.org/2000/svg"  viewBox="0 0 32 32" width="32px" height="32px" baseProfile="basic"><linearGradient id="21yPmINcsPQzYpGQagiCxa" x1="5.619" x2="26.381" y1="4.967" y2="25.729" gradientUnits="userSpaceOnUse"><stop offset="0" stop-color="#2680ff" stop-opacity=".95"/><stop offset="1" stop-color="#2680ff" stop-opacity=".5"/></linearGradient><path fill="url(#21yPmINcsPQzYpGQagiCxa)" d="M27,6c-0.064,0-2.636,0-6,0V5c0-1.657-1.343-3-3-3h-4c-1.657,0-3,1.343-3,3v1 C7.636,6,5.064,6,5,6C4.448,6,4,6.448,4,7c0,0.552,0.448,1,1,1c0.027,0,0.517,0,1.318,0l0.818,18.135 C7.208,27.738,8.529,29,10.133,29h11.734c1.604,0,2.925-1.262,2.997-2.865L25.682,8C26.483,8,26.973,8,27,8c0.552,0,1-0.448,1-1 C28,6.448,27.552,6,27,6z M13,5c0-0.552,0.448-1,1-1h4c0.552,0,1,0.448,1,1v1c-1.955,0-4.045,0-6,0V5z"/><linearGradient id="21yPmINcsPQzYpGQagiCxb" x1="5.619" x2="26.381" y1="4.967" y2="25.729" gradientUnits="userSpaceOnUse"><stop offset="0" stop-color="#fff" stop-opacity=".6"/><stop offset=".493" stop-color="#fff" stop-opacity="0"/><stop offset=".997" stop-color="#fff" stop-opacity=".3"/></linearGradient><path fill="url(#21yPmINcsPQzYpGQagiCxb)" d="M18,2.5c1.379,0,2.5,1.122,2.5,2.5v1v0.5 H21h6c0.276,0,0.5,0.224,0.5,0.5S27.276,7.5,27,7.5h-1.318h-0.478l-0.022,0.477l-0.818,18.135 c-0.06,1.339-1.157,2.387-2.497,2.387H10.133c-1.34,0-2.437-1.049-2.497-2.387L6.817,7.977L6.796,7.5H6.318H5 C4.724,7.5,4.5,7.276,4.5,7S4.724,6.5,5,6.5h6h0.5V6V5c0-1.378,1.121-2.5,2.5-2.5H18 M12.5,6.5H13h6h0.5V6V5 c0-0.827-0.673-1.5-1.5-1.5h-4c-0.827,0-1.5,0.673-1.5,1.5v1V6.5 M18,2h-4c-1.657,0-3,1.343-3,3v1C7.636,6,5.064,6,5,6 C4.448,6,4,6.448,4,7c0,0.552,0.448,1,1,1c0.027,0,0.517,0,1.318,0l0.818,18.135C7.208,27.738,8.529,29,10.133,29h11.734 c1.604,0,2.925-1.262,2.997-2.865L25.682,8C26.483,8,26.973,8,27,8c0.552,0,1-0.448,1-1c0-0.552-0.448-1-1-1c-0.064,0-2.636,0-6,0 V5C21,3.343,19.657,2,18,2L18,2z M13,6V5c0-0.552,0.448-1,1-1h4c0.552,0,1,0.448,1,1v1C17.045,6,14.955,6,13,6L13,6z"/><linearGradient id="21yPmINcsPQzYpGQagiCxc" x1="12.043" x2="19.957" y1="13.543" y2="21.457" gradientUnits="userSpaceOnUse"><stop offset="0" stop-color="#fff" stop-opacity=".8"/><stop offset=".519" stop-color="#fff" stop-opacity=".5"/><stop offset="1" stop-color="#fff" stop-opacity=".6"/></linearGradient><path fill="url(#21yPmINcsPQzYpGQagiCxc)" d="M16,10c-0.553,0-1,0.447-1,1v13	c0,0.553,0.447,1,1,1s1-0.447,1-1V11C17,10.447,16.553,10,16,10z"/><linearGradient id="21yPmINcsPQzYpGQagiCxd" x1="16.194" x2="23.983" y1="13.606" y2="21.394" gradientUnits="userSpaceOnUse"><stop offset="0" stop-color="#fff" stop-opacity=".8"/><stop offset=".519" stop-color="#fff" stop-opacity=".5"/><stop offset="1" stop-color="#fff" stop-opacity=".6"/></linearGradient><path fill="url(#21yPmINcsPQzYpGQagiCxd)" d="M20.233,10c-0.007,0-0.014,0-0.02,0	c-0.544,0-0.989,0.436-1,0.98l-0.251,13c-0.011,0.553,0.429,1.009,0.98,1.02c0.007,0,0.014,0,0.02,0c0.544,0,0.989-0.436,1-0.98	l0.251-13C21.225,10.467,20.785,10.011,20.233,10z"/><linearGradient id="21yPmINcsPQzYpGQagiCxe" x1="7.892" x2="15.932" y1="13.48" y2="21.52" gradientUnits="userSpaceOnUse"><stop offset="0" stop-color="#fff" stop-opacity=".8"/><stop offset=".519" stop-color="#fff" stop-opacity=".5"/><stop offset="1" stop-color="#fff" stop-opacity=".6"/></linearGradient><path fill="url(#21yPmINcsPQzYpGQagiCxe)" d="M11.786,10c-0.006,0-0.013,0-0.02,0	c-0.552,0.011-0.991,0.467-0.98,1.02l0.251,13c0.011,0.545,0.456,0.98,1,0.98c0.006,0,0.013,0,0.02,0	c0.552-0.011,0.991-0.467,0.98-1.02l-0.251-13C12.775,10.436,12.33,10,11.786,10z"/></svg>