<svg xmlns="http://www.w3.org/2000/svg"  viewBox="0 0 32 32" width="32px" height="32px" baseProfile="basic"><linearGradient id="nVsIZWYftj2mGAXBi09g0a" x1="-38.283" x2="-33.554" y1="-134.521" y2="-134.521" gradientTransform="rotate(45.001 -178.941 8.679) scale(1 1.0203)" gradientUnits="userSpaceOnUse"><stop offset="0" stop-color="#ff4288" stop-opacity=".95"/><stop offset="1" stop-color="#ff4288" stop-opacity=".5"/></linearGradient><path fill="url(#nVsIZWYftj2mGAXBi09g0a)" d="M25.345,9.999l-3.344-3.344l2.121-2.121c0.713-0.713,1.869-0.713,2.582,0l0.762,0.762	c0.713,0.713,0.713,1.869,0,2.582L25.345,9.999z"/><linearGradient id="nVsIZWYftj2mGAXBi09g0b" x1="-38.283" x2="-33.554" y1="30.732" y2="30.732" gradientTransform="rotate(45.001 -257.838 -24) scale(1 -6.0664)" gradientUnits="userSpaceOnUse"><stop offset="0" stop-color="#ffc400" stop-opacity=".95"/><stop offset="1" stop-color="#ffc400" stop-opacity=".5"/></linearGradient><path fill="url(#nVsIZWYftj2mGAXBi09g0b)" d="M25.345,9.999l-3.344-3.344L5.717,22.939	l-1.65,4.171c-0.204,0.516,0.306,1.026,0.822,0.822l4.171-1.65L25.345,9.999z"/><linearGradient id="nVsIZWYftj2mGAXBi09g0c" x1="13.975" x2="17.318" y1="14.682" y2="18.025" gradientUnits="userSpaceOnUse"><stop offset=".002" stop-color="#fff" stop-opacity=".6"/><stop offset=".493" stop-color="#fff" stop-opacity="0"/><stop offset=".996" stop-color="#fff" stop-opacity=".3"/></linearGradient><path fill="url(#nVsIZWYftj2mGAXBi09g0c)" d="M25.413,4.5 c0.354,0,0.687,0.138,0.937,0.388l0.762,0.762c0.517,0.517,0.517,1.358,0,1.875L8.78,25.856l-4.075,1.612 c-0.019,0.007-0.036,0.011-0.052,0.011c-0.049,0-0.089-0.032-0.109-0.063c-0.038-0.056-0.018-0.105-0.012-0.122l1.611-4.075 L24.475,4.888C24.726,4.638,25.058,4.5,25.413,4.5 M25.413,4c-0.467,0-0.935,0.178-1.291,0.535L5.717,22.939l-1.65,4.171 c-0.172,0.436,0.166,0.868,0.586,0.868c0.077,0,0.157-0.014,0.236-0.046l4.171-1.65L27.465,7.878c0.713-0.713,0.713-1.869,0-2.582 l-0.762-0.762C26.347,4.178,25.88,4,25.413,4L25.413,4z"/></svg>