<svg width="96" height="96" viewBox="0 0 96 96" fill="none" xmlns="http://www.w3.org/2000/svg">
<rect width="96" height="96" rx="40" fill="black"/>
<path d="M72.5 48.8981C79.9558 48.8981 86 54.9423 86 62.3981C86 69.854 79.9558 75.8981 72.5 75.8981H22.5C15.0442 75.8981 9 69.854 9 62.3981C9 54.9423 15.0442 48.8981 22.5 48.8981L72.5 48.8981Z" fill="url(#paint0_linear_201_24)"/>
<path d="M39.5571 42.8412C34.8312 37.4974 35.0893 29.0761 40.1336 24.0317C45.178 18.9874 53.0984 19.2301 57.8243 24.5739L83.0474 53.0945C87.7733 58.4383 87.5152 66.8595 82.4709 71.9039C77.4265 76.9482 69.5061 76.7055 64.7801 71.3617L39.5571 42.8412Z" fill="url(#paint1_linear_201_24)"/>
<path d="M38.5759 23.6758C43.3019 18.332 51.2223 18.0893 56.2667 23.1336C61.311 28.178 61.5691 36.5992 56.8432 41.943L30.8243 71.3634C26.0983 76.7072 18.1779 76.95 13.1336 71.9056C8.08922 66.8613 7.83111 58.44 12.5571 53.0962L38.5759 23.6758Z" fill="url(#paint2_linear_201_24)"/>
<path d="M46.1472 42.6698C50.8732 37.326 58.7936 37.0833 63.838 42.1276C68.8823 47.172 69.1404 55.5932 64.4144 60.937L54.8544 71.7469C50.1284 77.0907 42.208 77.3335 37.1637 72.2891C32.1193 67.2448 31.8612 58.8235 36.5872 53.4797L46.1472 42.6698Z" fill="url(#paint3_linear_201_24)"/>
<defs>
<linearGradient id="paint0_linear_201_24" x1="90.9359" y1="71.6794" x2="13.9359" y2="71.6794" gradientUnits="userSpaceOnUse">
<stop offset="0.274038" stop-color="#009BB6"/>
<stop offset="0.9995" stop-color="#BAD8FF"/>
</linearGradient>
<linearGradient id="paint1_linear_201_24" x1="43.699" y1="14.6837" x2="88.8037" y2="59.7884" gradientUnits="userSpaceOnUse">
<stop stop-color="#BAD8FF"/>
<stop offset="0.591346" stop-color="#009BB6"/>
</linearGradient>
<linearGradient id="paint2_linear_201_24" x1="65.311" y1="26.2865" x2="19.3584" y2="72.2391" gradientUnits="userSpaceOnUse">
<stop stop-color="#009BB6"/>
<stop offset="1" stop-color="#BAD8FF"/>
</linearGradient>
<linearGradient id="paint3_linear_201_24" x1="71.8272" y1="46.4736" x2="43.4093" y2="74.8914" gradientUnits="userSpaceOnUse">
<stop stop-color="#009BB6"/>
<stop offset="1" stop-color="#BAD8FF"/>
</linearGradient>
</defs>
</svg>
