<svg xmlns="http://www.w3.org/2000/svg"  viewBox="0 0 32 32" width="32px" height="32px" baseProfile="basic"><linearGradient id="uk9k6Z9C39vMgif5p4sDba" x1="4.732" x2="27.268" y1="4.732" y2="27.268" gradientUnits="userSpaceOnUse"><stop offset="0" stop-color="#ff3519" stop-opacity=".95"/><stop offset="1" stop-color="#ff3519" stop-opacity=".5"/></linearGradient><path fill="url(#uk9k6Z9C39vMgif5p4sDba)" d="M19.535,16l7.732-7.732c0.977-0.977,0.977-2.559,0-3.535c-0.976-0.977-2.56-0.977-3.535,0	L16,12.465L8.268,4.732c-0.976-0.977-2.56-0.977-3.535,0c-0.977,0.977-0.977,2.559,0,3.535L12.465,16l-7.732,7.732	c-0.977,0.977-0.977,2.559,0,3.535C5.22,27.756,5.86,28,6.5,28s1.28-0.244,1.768-0.732L16,19.535l7.732,7.732	C24.22,27.756,24.86,28,25.5,28s1.28-0.244,1.768-0.732c0.977-0.977,0.977-2.559,0-3.535L19.535,16z"/><linearGradient id="uk9k6Z9C39vMgif5p4sDbb" x1="4.732" x2="27.268" y1="4.732" y2="27.268" gradientUnits="userSpaceOnUse"><stop offset="0" stop-color="#fff" stop-opacity=".6"/><stop offset=".493" stop-color="#fff" stop-opacity="0"/><stop offset=".997" stop-color="#fff" stop-opacity=".3"/></linearGradient><path fill="url(#uk9k6Z9C39vMgif5p4sDbb)" d="M25.5,4.5c0.534,0,1.036,0.208,1.414,0.586C27.292,5.464,27.5,5.966,27.5,6.5	s-0.208,1.036-0.586,1.414l-7.732,7.732L18.828,16l0.354,0.354l7.732,7.732c0.378,0.378,0.586,0.88,0.586,1.414	s-0.208,1.036-0.586,1.414C26.536,27.292,26.034,27.5,25.5,27.5s-1.036-0.208-1.414-0.586l-7.732-7.732L16,18.828l-0.354,0.354	l-7.733,7.733C7.536,27.292,7.034,27.5,6.5,27.5s-1.036-0.208-1.414-0.586C4.708,26.536,4.5,26.034,4.5,25.5	s0.208-1.036,0.586-1.414l7.732-7.732L13.172,16l-0.354-0.354L5.086,7.914C4.708,7.536,4.5,7.034,4.5,6.5s0.208-1.036,0.586-1.414	C5.464,4.708,5.966,4.5,6.5,4.5c0.534,0,1.036,0.208,1.414,0.586l7.732,7.732L16,13.172l0.354-0.354l7.733-7.733	C24.464,4.708,24.966,4.5,25.5,4.5 M25.5,4c-0.64,0-1.28,0.244-1.768,0.732L16,12.465L8.268,4.732C7.78,4.244,7.14,4,6.5,4	S5.22,4.244,4.732,4.732c-0.977,0.977-0.977,2.559,0,3.535L12.465,16l-7.732,7.732c-0.977,0.977-0.977,2.559,0,3.535	C5.22,27.756,5.86,28,6.5,28s1.28-0.244,1.768-0.732L16,19.535l7.732,7.732C24.22,27.756,24.86,28,25.5,28s1.28-0.244,1.768-0.732	c0.977-0.977,0.977-2.559,0-3.535L19.535,16l7.732-7.732c0.977-0.977,0.977-2.559,0-3.535C26.78,4.244,26.14,4,25.5,4L25.5,4z"/></svg>